<?xml version="1.0" encoding="utf-8"?>
<!-- Generator: Adobe Illustrator 24.3.0, SVG Export Plug-In . SVG Version: 6.00 Build 0)  -->
<svg version="1.1" id="Слой_1" xmlns="http://www.w3.org/2000/svg" xmlns:xlink="http://www.w3.org/1999/xlink" x="0px" y="0px"
	 viewBox="0 0 128 64" style="enable-background:new 0 0 128 64;" xml:space="preserve">
<style type="text/css">
	.st0{fill:#00629D;}
</style>
<g>
	<path class="st0" d="M38.28,47.7c0,0.96-0.32,1.74-0.97,2.34c-0.65,0.61-1.47,0.91-2.48,0.91H21.34c-1.01,0-1.83-0.3-2.46-0.91
		c-0.64-0.61-0.96-1.39-0.96-2.34V8.36c0-0.96,0.32-1.74,0.96-2.34c0.64-0.6,1.46-0.91,2.46-0.91h13.49c1.01,0,1.83,0.3,2.48,0.91
		c0.65,0.61,0.97,1.39,0.97,2.34V47.7z M34,47.35V8.71H22.2v38.64H34z"/>
	<path class="st0" d="M57.63,22.45l-7.42,28.56h-3.73l-7.45-28.56h4.22l5.11,22.44l5.17-22.44H57.63z"/>
	<path class="st0" d="M74.86,50.96h-4.03v-0.79c-1.62,0.21-3.24,0.42-4.87,0.62c-2.01,0.23-3.62,0.35-4.84,0.35
		c-2.24,0-3.36-1.05-3.36-3.16v-10.4c0-2.19,1.16-3.28,3.48-3.28h9.64V25.7h-8.81v4.86H58.1v-4.8c0-2.21,1.15-3.31,3.45-3.31h9.85
		c2.3,0,3.45,1.1,3.45,3.31V50.96z M70.88,47.41V37.33h-9.15v10.25L70.88,47.41z"/>
	<path class="st0" d="M93.47,47.64c0,2.21-1.15,3.31-3.45,3.31h-9.73c-2.3,0-3.45-1.1-3.45-3.31V25.76c0-2.21,1.15-3.31,3.45-3.31
		h9.73c2.3,0,3.45,1.1,3.45,3.31v5.68h-4.03v-5.57h-8.5v21.65h8.5v-6.36h4.03V47.64z"/>
	<path class="st0" d="M112.27,22.45l-7.21,28.27l-2.99,11.04h-4.03l3.02-11.04l-7.39-28.27h4.22L103,44.89l5.17-22.44H112.27z"/>
</g>
</svg>
